<svg fill="currentColor" xmlns="http://www.w3.org/2000/svg" xmlns:xlink="http://www.w3.org/1999/xlink"
	 viewBox="-2.696 -0.960 95.274 33.920">
<g>
	<path d="M37.479,15.598c0.81-0.413,1.204-1.017,1.204-1.843c0-1.533-1.045-2.278-3.194-2.278h-4.604
		c-0.038,0-0.069,0.031-0.069,0.069v8.908c0,0.038,0.031,0.069,0.069,0.069h4.741c1.625,0,3.523-0.694,3.523-2.652
		C39.149,16.741,38.557,15.94,37.479,15.598z M33.105,13.138h1.945c0.962,0,1.411,0.303,1.411,0.954
		c0,0.819-0.678,0.991-1.246,0.991h-2.109V13.138z M35.338,18.863h-2.233v-2.306h2.274c0.981,0,1.479,0.405,1.479,1.203
		C36.858,18.492,36.347,18.863,35.338,18.863z"/>
	<path d="M44.312,20.699c2.273,0,3.742-1.359,3.742-3.463c0-2.111-1.469-3.475-3.742-3.475
		c-2.265,0-3.728,1.364-3.728,3.475C40.584,19.339,42.048,20.699,44.312,20.699z M44.312,15.234c1.442,0,1.657,1.254,1.657,2.002
		c0,0.743-0.215,1.989-1.657,1.989c-1.43,0-1.644-1.246-1.644-1.989C42.669,16.488,42.882,15.234,44.312,15.234z"/>
	<path d="M56.974,17.236c0-2.111-1.469-3.475-3.742-3.475c-2.265,0-3.728,1.364-3.728,3.475
		c0,2.103,1.464,3.463,3.728,3.463C55.505,20.699,56.974,19.339,56.974,17.236z M53.232,19.225c-1.43,0-1.644-1.246-1.644-1.989
		c0-0.748,0.213-2.002,1.644-2.002c1.442,0,1.657,1.254,1.657,2.002C54.889,17.979,54.674,19.225,53.232,19.225z"/>
	<path d="M62.018,20.699c0.993,0,3.304-0.226,3.304-2.315c0-1.228-1.107-1.628-2.302-1.877
		c-0.183-0.04-0.366-0.075-0.544-0.11c-0.862-0.166-1.607-0.31-1.607-0.783c0-0.356,0.331-0.529,1.013-0.529
		c0.815,0,1.216,0.257,1.26,0.81c0.003,0.036,0.033,0.064,0.069,0.064h1.85c0.02,0,0.038-0.008,0.052-0.023
		c0.013-0.015,0.019-0.034,0.018-0.053c-0.167-1.753-1.829-2.121-3.193-2.121c-1.438,0-3.153,0.371-3.153,2.14
		c0,1.208,1.189,1.557,2.304,1.79c1.299,0.246,2.15,0.443,2.15,0.93c0,0.557-0.649,0.754-1.205,0.754
		c-0.657,0-1.424-0.266-1.424-1.016c0-0.038-0.031-0.069-0.069-0.069h-1.85c-0.019,0-0.037,0.008-0.05,0.021
		c-0.013,0.014-0.02,0.032-0.019,0.051C58.678,19.847,59.917,20.699,62.018,20.699z"/>
	<path d="M67.935,18.995c0,1.413,1.164,1.604,2.303,1.604c0.492,0,0.867-0.021,1.148-0.063
		c0.034-0.005,0.059-0.034,0.059-0.069v-1.385c0-0.021-0.01-0.041-0.026-0.054c-0.013-0.01-0.028-0.016-0.044-0.016
		c-0.005,0-0.009,0.001-0.014,0.002c-0.155,0.033-0.348,0.048-0.589,0.048c-0.619,0-0.753-0.121-0.753-0.679v-3.124h1.355
		c0.038,0,0.069-0.031,0.069-0.069v-1.185c0-0.038-0.031-0.069-0.069-0.069H70.02v-1.864c0-0.038-0.031-0.069-0.069-0.069h-1.946
		c-0.038,0-0.069,0.031-0.069,0.069v1.864h-1.109c-0.038,0-0.069,0.031-0.069,0.069v1.185c0,0.038,0.031,0.069,0.069,0.069h1.109
		V18.995z"/>
	<path d="M76.404,20.699c1.719,0,2.856-0.746,3.382-2.217c0.008-0.021,0.004-0.045-0.009-0.063
		c-0.013-0.018-0.034-0.029-0.057-0.029h-1.713c-0.03,0-0.057,0.02-0.066,0.049c-0.117,0.38-0.735,0.787-1.468,0.787
		c-1.064,0-1.595-0.476-1.667-1.495h5.038c0.036,0,0.066-0.028,0.069-0.064c0.084-1.106-0.247-2.149-0.907-2.861
		c-0.633-0.683-1.533-1.044-2.602-1.044c-2.136,0-3.687,1.462-3.687,3.475C72.717,19.307,74.199,20.699,76.404,20.699z
		 M76.349,15.234c0.829,0,1.27,0.37,1.463,1.234H74.81C74.859,16.099,75.108,15.234,76.349,15.234z"/>
	<path d="M86.397,13.825c-0.162-0.044-0.302-0.065-0.443-0.065c-0.907,0-1.787,0.49-2.219,1.213v-0.969
		c0-0.038-0.031-0.069-0.069-0.069h-1.85c-0.038,0-0.069,0.031-0.069,0.069v6.45c0,0.038,0.031,0.069,0.069,0.069h1.946
		c0.038,0,0.069-0.031,0.069-0.069v-2.907c0-1.328,0.622-2.002,1.849-2.002c0.232,0,0.514,0.025,0.684,0.061
		c0.005,0.001,0.01,0.002,0.014,0.002c0.016,0,0.031-0.005,0.044-0.016c0.016-0.013,0.026-0.033,0.026-0.054v-1.647
		C86.448,13.861,86.427,13.834,86.397,13.825z"/>
	<path d="M30.695,23.692v0.256h-0.506v0.506h0.506v2.571h0.678v-2.571h0.578v-0.506h-0.578v-0.315
		c0-0.256,0.149-0.322,0.333-0.322c0.137,0,0.226,0.012,0.316,0.036v-0.53c-0.101-0.03-0.256-0.042-0.476-0.042
		C31.106,22.775,30.695,22.906,30.695,23.692z"/>
	<path d="M33.957,23.864c-0.982,0-1.553,0.685-1.553,1.619c0,0.946,0.571,1.625,1.553,1.625
		c0.982,0,1.554-0.679,1.554-1.625C35.511,24.549,34.94,23.864,33.957,23.864z M33.957,26.573c-0.607,0-0.875-0.553-0.875-1.089
		c0-0.53,0.268-1.083,0.875-1.083s0.875,0.554,0.875,1.083C34.832,26.019,34.565,26.573,33.957,26.573z"/>
	<path d="M36.904,24.543h-0.012v-0.595h-0.637v3.077h0.679v-1.464c0-0.685,0.375-1.054,0.833-1.054
		c0.095,0,0.196,0.012,0.292,0.03v-0.655c-0.066-0.006-0.095-0.018-0.256-0.018C37.393,23.864,36.982,24.215,36.904,24.543z"/>
	<polygon points="44.042,26.025 44.03,26.025 43.197,22.775 42.435,22.775 41.578,26.025 41.566,26.025 
		40.798,22.775 40.042,22.775 41.161,27.025 41.929,27.025 42.798,23.775 42.81,23.775 43.661,27.025 44.417,27.025 45.59,22.775 
		44.834,22.775 	"/>
	<path d="M47.466,23.864c-0.982,0-1.554,0.685-1.554,1.619c0,0.946,0.571,1.625,1.554,1.625
		c0.982,0,1.554-0.679,1.554-1.625C49.019,24.549,48.448,23.864,47.466,23.864z M47.466,26.573c-0.607,0-0.875-0.553-0.875-1.089
		c0-0.53,0.268-1.083,0.875-1.083c0.607,0,0.875,0.554,0.875,1.083C48.341,26.019,48.073,26.573,47.466,26.573z"/>
	<path d="M51.175,23.864c-0.982,0-1.554,0.685-1.554,1.619c0,0.946,0.571,1.625,1.554,1.625
		c0.982,0,1.554-0.679,1.554-1.625C52.729,24.549,52.157,23.864,51.175,23.864z M51.175,26.573c-0.607,0-0.875-0.553-0.875-1.089
		c0-0.53,0.268-1.083,0.875-1.083c0.607,0,0.875,0.554,0.875,1.083C52.05,26.019,51.782,26.573,51.175,26.573z"/>
	<path d="M55.378,26.519c-0.911,0-1.292-0.804-1.292-1.619c0-0.815,0.381-1.619,1.292-1.619
		c0.619,0,0.934,0.351,1.06,0.845h0.744c-0.095-0.917-0.839-1.452-1.803-1.452c-1.268,0-2.036,1.018-2.036,2.226
		c0,1.22,0.768,2.226,2.036,2.226c1.03,0,1.744-0.702,1.809-1.72h-0.726C56.396,26.025,56.044,26.519,55.378,26.519z"/>
	<path d="M59.361,23.864c-0.982,0-1.554,0.685-1.554,1.619c0,0.946,0.571,1.625,1.554,1.625
		c0.982,0,1.554-0.679,1.554-1.625C60.915,24.549,60.343,23.864,59.361,23.864z M59.361,26.573c-0.607,0-0.875-0.553-0.875-1.089
		c0-0.53,0.268-1.083,0.875-1.083c0.607,0,0.875,0.554,0.875,1.083C60.236,26.019,59.968,26.573,59.361,26.573z"/>
	<path d="M65.094,23.864c-0.452,0-0.732,0.196-0.964,0.512c-0.137-0.351-0.488-0.512-0.863-0.512
		c-0.494,0-0.738,0.208-0.946,0.512h-0.018v-0.428h-0.643v3.077h0.679v-1.827c0-0.506,0.321-0.798,0.673-0.798
		c0.411,0,0.542,0.22,0.542,0.649v1.976h0.678v-1.803c0-0.524,0.197-0.821,0.655-0.821c0.53,0,0.559,0.333,0.559,0.827v1.798h0.679
		V24.9C66.123,24.156,65.742,23.864,65.094,23.864z"/>
	<path d="M70.452,23.864c-0.452,0-0.732,0.196-0.964,0.512c-0.137-0.351-0.488-0.512-0.863-0.512
		c-0.494,0-0.738,0.208-0.946,0.512H67.66v-0.428h-0.643v3.077h0.679v-1.827c0-0.506,0.321-0.798,0.672-0.798
		c0.411,0,0.542,0.22,0.542,0.649v1.976h0.678v-1.803c0-0.524,0.197-0.821,0.655-0.821c0.53,0,0.559,0.333,0.559,0.827v1.798h0.679
		V24.9C71.481,24.156,71.101,23.864,70.452,23.864z"/>
	<path d="M73.715,23.864c-0.917,0-1.488,0.75-1.488,1.625c0,0.952,0.536,1.619,1.506,1.619
		c0.666,0,1.25-0.375,1.393-1.047h-0.643c-0.119,0.339-0.351,0.512-0.75,0.512c-0.565,0-0.828-0.429-0.828-0.911h2.262
		C75.28,24.739,74.685,23.864,73.715,23.864z M72.905,25.215c0.018-0.458,0.339-0.815,0.81-0.815c0.464,0,0.744,0.387,0.774,0.815
		H72.905z"/>
	<path d="M76.513,24.543h-0.012v-0.595h-0.637v3.077h0.679v-1.464c0-0.685,0.375-1.054,0.833-1.054
		c0.095,0,0.196,0.012,0.292,0.03v-0.655c-0.065-0.006-0.095-0.018-0.256-0.018C77.001,23.864,76.591,24.215,76.513,24.543z"/>
	<path d="M79.406,24.4c0.381,0,0.649,0.196,0.702,0.577h0.679c-0.065-0.756-0.673-1.113-1.387-1.113
		c-1.012,0-1.518,0.726-1.518,1.655c0,0.905,0.53,1.589,1.494,1.589c0.792,0,1.286-0.434,1.411-1.238h-0.679
		c-0.065,0.446-0.333,0.702-0.732,0.702c-0.589,0-0.815-0.542-0.815-1.054C78.561,24.591,79.055,24.4,79.406,24.4z"/>
	<path d="M82.86,23.864c-0.917,0-1.488,0.75-1.488,1.625c0,0.952,0.536,1.619,1.506,1.619
		c0.666,0,1.25-0.375,1.393-1.047h-0.643c-0.119,0.339-0.351,0.512-0.75,0.512c-0.565,0-0.828-0.429-0.828-0.911h2.262
		C84.425,24.739,83.83,23.864,82.86,23.864z M82.05,25.215c0.018-0.458,0.339-0.815,0.81-0.815c0.464,0,0.744,0.387,0.774,0.815
		H82.05z"/>
	<path d="M23.783,16.379c-0.864-0.519-1.805-0.804-2.793-0.846l-0.033-0.002v-0.319l0.026-0.005
		c0.908-0.207,1.723-0.557,2.427-1.046c0.704-0.489,1.267-1.127,1.672-1.894c0.407-0.769,0.612-1.677,0.612-2.697
		c0-1.309-0.326-2.485-0.967-3.494c-0.641-1.008-1.614-1.807-2.891-2.378c-1.277-0.57-2.895-0.86-4.81-0.86h-4.858v4.442h4.115
		c0.522,0,1.008,0.056,1.446,0.168l0.082-0.095l-1.617-1.619l6.91-0.988l-0.987,6.91l-1.614-1.61l-0.336,0.361l0.002,0.03
		c0.002,0.021,0.003,0.04,0.003,0.061c0,0.701-0.177,1.311-0.526,1.812c-0.347,0.501-0.825,0.894-1.421,1.165
		c-0.38,0.173-0.801,0.293-1.251,0.356l-3.508,3.761h3.254c0.888,0,1.667,0.161,2.313,0.48c0.647,0.319,1.153,0.766,1.505,1.327
		c0.351,0.563,0.529,1.22,0.529,1.952c0,1.004-0.361,1.817-1.074,2.418c-0.711,0.599-1.856,0.904-3.401,0.904h-4.555V19.12
		l-8.601,9.221v0.822h14.294c1.945,0,3.606-0.319,4.937-0.95c1.328-0.629,2.345-1.498,3.026-2.583
		c0.68-1.086,1.025-2.339,1.025-3.727c0-1.283-0.273-2.406-0.815-3.34C25.362,17.632,24.649,16.896,23.783,16.379z"/>
	<polygon points="12.035,13.884 12.035,12.964 3.434,22.714 3.434,23.652 12.049,13.884 	"/>
	<polygon points="11.977,2.837 3.434,2.837 3.434,22.429 11.977,12.745 	"/>
	<polygon points="20.498,9.773 21.982,11.255 22.879,4.97 16.593,5.867 18.07,7.344 3.434,23.937 3.433,23.939 
		3.433,28.068 3.434,28.066 	"/>
</g>






</svg>