<svg id="Layer_1" data-name="Layer 1" xmlns="http://www.w3.org/2000/svg" viewBox="0 0 256 256"><defs><style>.cls-1{fill:#0073aa;}.cls-2{fill:#00507c;}.cls-3{fill:#ff5722;}</style></defs><path class="cls-1" d="M53.15,244V12H145.4q25.41,0,42.4,7.59t25.54,21q8.55,13.42,8.55,30.87,0,13.61-5.4,23.85a46.33,46.33,0,0,1-14.79,16.76,60.73,60.73,0,0,1-21.43,9.24v2.26A51.68,51.68,0,0,1,205,131.06a53,53,0,0,1,18.73,19.31q7.2,12.4,7.2,29.51,0,18.47-9.06,32.91t-26.71,22.83Q177.45,244,151.58,244Zm48.71-134.92H138a42.46,42.46,0,0,0,17.83-3.57,29.56,29.56,0,0,0,12.37-10.13,26.93,26.93,0,0,0,4.56-15.75q0-12.57-8.83-20.28t-25-7.7h-37Zm0,94.82h39.71q20.35,0,29.7-7.87t9.33-21a30.49,30.49,0,0,0-17.71-28.54q-8.49-4.2-20.19-4.2H101.86Z"/><rect class="cls-2" x="25.11" y="12" width="76.33" height="232" transform="translate(126.56 256) rotate(180)"/><path class="cls-3" d="M25.21,12h76.66v88.29L25.21,184.41Z"/><polygon class="cls-3" points="177.68 72.58 25.11 236.16 25.21 197.35 155.57 49.54 177.68 72.58"/><polygon class="cls-3" points="189.55 88.06 139.85 38.35 197.84 30.07 189.55 88.06"/></svg>