<svg viewBox="0 0 30 30" xmlns="http://www.w3.org/2000/svg" fill-rule="evenodd" clip-rule="evenodd" stroke-linejoin="round" stroke-miterlimit="2"><path d="M2.132 15c0 5.109 2.953 9.515 7.265 11.58L3.247 9.763A12.735 12.735 0 002.108 15h.023zm21.554-.65c0-1.59-.571-2.691-1.06-3.548-.653-1.06-1.264-1.958-1.264-3.018 0-1.183.896-2.284 2.16-2.284.057 0 .094 0 .188.01-2.31-2.088-5.382-3.4-8.71-3.378-4.496 0-8.45 2.307-10.751 5.812.302 0 .61 0 .844.016 1.345 0 3.429-.164 3.429-.164.693-.04.797.985.094 1.078 0 0-.697.082-1.473.123l4.686 13.938 2.816-8.445-2.004-5.493c-.693-.041-1.35-.123-1.35-.123-.693-.04-.612-1.1.082-1.06 0 0 2.11.14 3.375.164 1.345 0 3.43-.164 3.43-.164.693-.04.797.984.093 1.06 0 0-.698.082-1.472.123l4.65 13.832 1.284-4.289c.53-1.806.939-3.071.939-4.19h.014zm-8.46 1.775l-3.862 11.22c1.154.327 2.391.515 3.657.515 1.498 0 2.935-.26 4.273-.73a1.22 1.22 0 01-.092-.177l-3.977-10.828zM26.29 8.813c.056.421.094.843.094 1.323 0 1.305-.244 2.773-.979 4.609l-3.93 11.363c3.825-2.23 6.398-6.375 6.398-11.123a13.002 13.002 0 00-1.577-6.158l-.006-.014zM15 0C6.729 0 0 6.729 0 15c0 8.25 6.75 15 15 15s15-6.729 15-15c0-8.25-6.75-15-15-15zm0 29.312C7.109 29.312.688 22.892.688 15 .688 7.125 7.125.703 15 .703c7.875 0 14.313 6.422 14.297 14.312.015 7.86-6.422 14.282-14.297 14.297z" fill="#0073aa" fill-rule="nonzero"/></svg>